<svg width="52" height="68" viewBox="0 0 52 68" fill="none" xmlns="http://www.w3.org/2000/svg">
<path fill-rule="evenodd" clip-rule="evenodd" d="M27.5939 67.3086C40.9043 66.081 51.4823 51.4575 51.5656 33.657C51.638 17.5467 43.0867 4.12479 31.6059 0.896355C32.0084 1.62588 32.4203 2.41795 32.8417 3.27258C34.9639 7.59175 37.215 13.6169 37.1903 19.8337C37.1743 23.3918 35.8264 26.396 34.0606 28.9705C32.3603 31.4525 30.1371 33.703 28.1329 35.7318L28.0413 35.8244C25.9325 37.9591 24.0623 39.8653 22.6831 41.8714C21.3399 43.8279 20.6058 45.6927 20.5968 47.6892C20.5748 52.5849 22.3876 57.6567 24.3452 61.6504C25.3068 63.606 26.3919 65.4959 27.5939 67.3086ZM20.427 66.6531C8.94621 63.4246 0.394847 50.0027 0.467253 33.8924C0.54727 16.0886 11.1318 1.47163 24.4389 0.240814L25.0305 1.15066C25.7543 2.29381 26.7201 3.93331 27.6844 5.90226C29.642 9.88946 31.458 14.9645 31.436 19.8602C31.4271 21.8567 30.6929 23.7215 29.3497 25.678C27.9705 27.6841 26.1003 29.5903 23.9915 31.725L23.9 31.8176C21.8958 33.8464 19.6725 36.0969 17.969 38.5756C16.2032 41.1501 14.8585 44.1576 14.8426 47.7157C14.8179 53.9325 17.069 59.9576 19.1911 64.2768C19.6104 65.1293 20.0223 65.9213 20.427 66.6531Z" fill="#D5AB75"/>
</svg>
