<svg width="57" height="74" viewBox="0 0 57 74" fill="none" xmlns="http://www.w3.org/2000/svg">
<path d="M34.9778 64.4897C32.7883 67.5132 26.424 71.8224 23.3874 73.9935C23.187 74.1371 14.2281 71.2139 13.9818 71.2246C13.7356 71.2352 13.4915 71.1739 13.2795 71.0481C8.48786 68.1976 4.71473 63.404 2.40723 57.0993C-0.585122 48.9714 -0.794656 39.2464 1.81756 29.7104C4.42978 20.1744 9.57164 11.9107 16.2829 6.44547C21.971 1.81917 28.2409 -0.369894 34.2961 0.0509966C34.543 0.0665893 34.7799 0.153961 34.9778 0.302376C35.1757 0.450791 34.3964 -0.156307 34.4805 0.0763148C34.5646 0.308937 42.8703 2.53367 42.8131 2.7743C42.7558 3.01493 45.6297 7.48974 42.1297 5.98974C50.4294 8.2386 46.3237 7.01111 44.8874 8.98974C40.4407 15.1404 33.3319 21.2799 37.8874 34.9897C40.9611 44.2987 40.3424 56.9758 34.9778 64.4897ZM43.5138 2.95061C43.3022 2.82521 43.0588 2.76396 42.8131 2.7743C42.5674 2.78465 42.3299 2.86615 42.1297 3.00889C39.0905 5.17855 36.4244 7.82813 34.236 10.8538C28.8714 18.3678 27.7152 26.895 30.7995 36.1906C35.3523 49.902 31.0069 60.108 26.5602 66.2587C25.1239 68.2373 23.5019 70.0743 21.7163 71.7445C21.5303 71.9143 21.3989 72.1357 21.3391 72.3804C21.2792 72.6251 21.2935 72.8821 21.3802 73.1186C21.4668 73.3551 21.6219 73.5606 21.8256 73.7087C22.0294 73.8569 22.2726 73.941 22.5243 73.9505C27.0417 74.2689 31.667 73.1231 36.0868 70.6041C37.6475 69.7085 39.1321 68.6864 40.5257 67.5482C47.2397 62.0814 52.3789 53.8193 54.9911 44.2833C57.6033 34.7473 57.3906 25.0168 54.4014 16.8943C52.0718 10.6022 48.3054 5.80117 43.5138 2.95061Z" fill="#F5E6D3"/>
<path d="M22.5573 63.1449C20.3678 66.1684 17.703 68.8172 14.6664 70.9883C14.466 71.1318 14.2281 71.2139 13.9818 71.2246C13.7356 71.2352 13.4915 71.1739 13.2795 71.0481C8.48786 68.1976 4.71473 63.404 2.40723 57.0993C-0.585122 48.9714 -0.794656 39.2464 1.81756 29.7104C4.42978 20.1744 9.57164 11.9107 16.2829 6.44547C21.971 1.81917 28.2409 -0.369894 34.2961 0.0509966C34.543 0.0665893 34.7799 0.153961 34.9778 0.302376C35.1757 0.450791 35.3259 0.653783 35.4099 0.886405C35.494 1.11903 35.5083 1.37115 35.451 1.61178C35.3938 1.85241 35.2675 2.07107 35.0876 2.24089C33.302 3.9111 31.68 5.74803 30.2437 7.72666C25.797 13.8773 21.4489 24.0849 26.0044 37.7948C29.0781 47.1037 27.9219 55.6309 22.5573 63.1449ZM43.5138 2.95061C43.3022 2.82521 43.0588 2.76396 42.8131 2.7743C42.5674 2.78465 42.3299 2.86615 42.1297 3.00889C39.0905 5.17855 36.4244 7.82813 34.236 10.8538C28.8714 18.3678 27.7152 26.895 30.7995 36.1906C35.3523 49.902 31.0069 60.108 26.5602 66.2587C25.1239 68.2373 23.5019 70.0743 21.7163 71.7445C21.5303 71.9143 21.3989 72.1357 21.3391 72.3804C21.2792 72.6251 21.2935 72.8821 21.3802 73.1186C21.4668 73.3551 21.6219 73.5606 21.8256 73.7087C22.0294 73.8569 22.2726 73.941 22.5243 73.9505C27.0417 74.2689 31.667 73.1231 36.0868 70.6041C37.6475 69.7085 39.1321 68.6864 40.5257 67.5482C47.2397 62.0814 52.3789 53.8193 54.9911 44.2833C57.6033 34.7473 57.3906 25.0168 54.4014 16.8943C52.0718 10.6022 48.3054 5.80117 43.5138 2.95061Z" fill="#003399"/>
</svg>
