<svg width="92" height="106" viewBox="0 0 92 106" fill="none" xmlns="http://www.w3.org/2000/svg">
<path d="M25.9525 87.3165C21.4931 90.5555 16.5425 93.033 11.2931 94.6527C10.9466 94.7599 10.5761 94.7619 10.2269 94.6582C9.87774 94.5545 9.56497 94.3497 9.32679 94.0688C3.94761 87.7085 0.891219 79.0793 0.582725 69.0103C0.160519 56.021 4.36722 42.1052 12.4309 29.8186C20.4946 17.5321 31.5057 8.27293 43.4158 3.74614C53.5075 -0.0824772 63.2848 -0.168262 71.5544 3.34997C71.8923 3.49117 72.183 3.72955 72.391 4.03582C72.5989 4.34208 72.715 4.70288 72.7249 5.07388C72.7348 5.44488 72.6381 5.80992 72.4467 6.12413C72.2553 6.43834 71.9776 6.68804 71.6476 6.84254C68.3788 8.35399 65.2615 10.1812 62.3383 12.2992C53.2766 18.8919 42.4756 31.2953 42.5003 52.9679C42.4898 67.6741 36.9281 79.2298 25.9525 87.3165ZM83.0978 11.9145C82.8601 11.6344 82.5482 11.43 82.1999 11.3261C81.8516 11.2223 81.4821 11.2236 81.1361 11.3298C75.8838 12.9461 70.9311 15.4242 66.4721 18.6669C55.4965 26.7536 49.9348 38.3093 49.9454 53.0016C49.9654 74.6751 39.169 87.0776 30.1074 93.6703C27.1841 95.7883 24.0668 97.6155 20.798 99.127C20.4594 99.2785 20.1734 99.5296 19.9765 99.8484C19.7797 100.167 19.6808 100.539 19.6924 100.917C19.7041 101.295 19.8258 101.661 20.0421 101.97C20.2583 102.279 20.5593 102.516 20.9068 102.65C27.0742 105.281 34.0699 105.884 41.4137 104.438C44.0097 103.918 46.5578 103.182 49.0326 102.237C60.9473 97.7097 71.9538 88.4514 80.0175 76.1649C88.0812 63.8784 92.2861 49.9532 91.8657 36.9732C91.5205 26.9114 88.477 18.2748 83.0978 11.9145Z" fill="#F5E6D3"/>
</svg>
