<svg width="35" height="34" viewBox="0 0 35 34" fill="none" xmlns="http://www.w3.org/2000/svg">
<path d="M13.1318 18.5821C13.1318 19.0704 12.987 19.5477 12.7157 19.9537C12.4444 20.3597 12.0588 20.6761 11.6077 20.863C11.1566 21.0498 10.6602 21.0987 10.1813 21.0035C9.70237 20.9082 9.26247 20.6731 8.91719 20.3278C8.57192 19.9825 8.33678 19.5426 8.24152 19.0637C8.14626 18.5848 8.19515 18.0884 8.38201 17.6373C8.56887 17.1862 8.88531 16.8006 9.29131 16.5293C9.69731 16.258 10.1746 16.1132 10.6629 16.1132C11.3177 16.1132 11.9457 16.3733 12.4087 16.8363C12.8717 17.2993 13.1318 17.9273 13.1318 18.5821V18.5821ZM24.5783 16.1132C24.09 16.1132 23.6127 16.258 23.2067 16.5293C22.8007 16.8006 22.4843 17.1862 22.2974 17.6373C22.1105 18.0884 22.0617 18.5848 22.1569 19.0637C22.2522 19.5426 22.4873 19.9825 22.8326 20.3278C23.1779 20.6731 23.6178 20.9082 24.0967 21.0035C24.5756 21.0987 25.072 21.0498 25.5231 20.863C25.9742 20.6761 26.3598 20.3597 26.6311 19.9537C26.9024 19.5477 27.0472 19.0704 27.0472 18.5821C27.047 17.9276 26.787 17.3001 26.3243 16.8373C25.8616 16.3744 25.2341 16.1143 24.5797 16.1139L24.5783 16.1132ZM31.5391 18.5821C31.5391 22.4242 28.4215 25.5391 24.5783 25.5391C22.8252 25.5419 21.1362 24.8803 19.8515 23.6874L17.6237 26.1114L15.3949 23.6847C14.1103 24.8788 12.4206 25.5415 10.6667 25.5391C6.82627 25.5391 3.70969 22.4242 3.70969 18.5821C3.70839 17.6141 3.90961 16.6567 4.30043 15.7712C4.69125 14.8856 5.26301 14.0917 5.97898 13.4403L3.70215 10.9633H8.76055C11.376 9.18331 14.4665 8.23145 17.6302 8.23145C20.7939 8.23145 23.8844 9.18331 26.4999 10.9633H31.5453L29.2688 13.4403C29.985 14.0916 30.557 14.8855 30.9481 15.771C31.3391 16.6565 31.5406 17.614 31.5395 18.5821H31.5391ZM15.3729 18.5821C15.3729 17.6508 15.0968 16.7405 14.5794 15.9662C14.0621 15.192 13.3267 14.5885 12.4664 14.2321C11.606 13.8758 10.6593 13.7826 9.74598 13.9643C8.83265 14.146 7.99371 14.5944 7.33525 15.2529C6.6768 15.9114 6.2284 16.7504 6.04677 17.6637C5.86514 18.5771 5.95843 19.5238 6.31484 20.3841C6.67125 21.2444 7.27478 21.9797 8.0491 22.497C8.82342 23.0144 9.73376 23.2904 10.665 23.2904C11.2833 23.2904 11.8956 23.1687 12.4668 22.9321C13.0381 22.6955 13.5571 22.3487 13.9944 21.9114C14.4316 21.4742 14.7784 20.9552 15.015 20.3839C15.2516 19.8127 15.3733 19.2004 15.3733 18.5821H15.3729ZM22.8481 11.5527C21.1924 10.8629 19.4165 10.5077 17.6229 10.5077C15.8292 10.5077 14.0533 10.8629 12.3976 11.5527C15.3702 12.6904 17.6237 15.3479 17.6237 18.4463C17.6237 15.3482 19.8769 12.6904 22.8484 11.553L22.8481 11.5527ZM29.2877 18.5821C29.2877 17.6508 29.0115 16.7405 28.4941 15.9662C27.9768 15.192 27.2414 14.5885 26.3811 14.2321C25.5207 13.8758 24.574 13.7826 23.6607 13.9643C22.7474 14.146 21.9084 14.5944 21.25 15.2529C20.5915 15.9114 20.1431 16.7504 19.9615 17.6637C19.7798 18.5771 19.8731 19.5238 20.2296 20.3841C20.586 21.2444 21.1895 21.9797 21.9638 22.497C22.7381 23.0144 23.6485 23.2904 24.5797 23.2904C25.8284 23.2904 27.026 22.7943 27.909 21.9113C28.7919 21.0284 29.288 19.8308 29.288 18.5821H29.2877Z" fill="#F5E6D3"/>
</svg>
